<?xml version="1.0" encoding="UTF-8"?>
<svg id="Layer_1" data-name="Layer 1" xmlns="http://www.w3.org/2000/svg" viewBox="0 0 587.69 583.29"
  fill="currentColor">
  <g>
    <g>
      <polygon
        points="536.45 394.19 529.63 394.19 478.39 501.39 533.04 501.39 533.04 491.51 494.21 491.51 509.31 459.47 533.07 409.85 555.64 457.3 556.84 459.46 576.6 501.39 587.69 501.39 536.45 394.19" />
      <polygon
        points="462.05 394.96 421.09 470.51 380.12 394.96 371.36 394.96 371.36 501.56 381.84 501.56 381.84 420.08 418.6 486.84 423.05 486.84 460.16 419.78 460.16 501.39 470.64 501.39 470.64 394.96 462.05 394.96" />
      <path
        d="M347.31,465.31l.09,26.03h-14.97c-26.3,0-46.13-18.54-46.13-43.12v-.34c0-24.79,19.22-42.78,45.7-42.78h18.58v-10.14h-18.58c-32.65,0-56.35,22.32-56.35,53.08v.36c.18,30.85,23.95,53.24,56.53,53.24h25.63v-36.34h-10.5Z" />
      <polygon
        points="228.75 394.36 221.94 394.36 170.7 501.56 225.35 501.56 225.35 491.68 186.52 491.68 201.62 459.73 225.38 410.1 247.92 457.43 249.15 459.72 268.91 501.56 280 501.56 228.75 394.36" />
      <path
        d="M172.34,437.3c.09-11.14-4.11-21.52-11.82-29.23-9.06-9.06-22.22-14.06-37.05-14.06h-30.96v107.37h10.14v-97.67h20.83c22.18,0,38.9,14.51,38.9,33.74,0,17.58-13.67,31.06-33.4,33.12l-16.51-16.51v14.05l33.36,33.36h14.05l-22.66-22.66c21.21-4.86,35.12-21,35.12-41.51h0Z" />
      <path
        d="M67.95,408.52c-8.95-9.13-22.08-14.16-36.98-14.16H0v107.37h10.14v-97.58h20.83c22.18,0,38.9,14.43,38.9,33.74s-16.29,33.4-38.73,33.4h-11.08v9.53h10.91c28.27,0,48.78-18.05,48.78-43.08.09-11.14-4.1-21.53-11.8-29.22h0Z" />
    </g>
    <g>
      <polygon
        points="513.84 340.16 373.45 340.16 373.45 179.71 450.71 268.01 450.71 268.01 513.84 340.16" />
      <polygon
        points="221.47 180.93 221.47 292.48 325.58 203.25 360.05 173.7 225.09 173.7 221.47 173.7 221.47 180.93" />
      <polygon points="450.74 95.96 512.03 43.42 380.69 43.42 450.74 95.96" />
      <polygon points="534.79 173.7 377.81 173.7 451.06 257.42 534.79 173.7" />
      <polygon
        points="451.04 105.24 451.04 105.24 373.45 47.04 373.45 162.21 373.45 166.46 379.61 166.46 532.67 166.46 451.04 105.24" />
      <polygon points="299.57 95.27 221.47 6.01 221.47 162.21 295.29 98.94 299.57 95.27" />
      <polygon
        points="366.21 160.45 366.21 47.67 262.11 136.91 227.64 166.46 361.86 166.46 366.21 166.46 366.21 160.45" />
      <polygon points="143.75 249.3 96.32 296.73 207 296.73 143.75 249.3" />
      <polygon points="366.21 177.95 292.4 241.22 288.12 244.89 366.21 334.15 366.21 177.95" />
      <polygon points="214.23 159.22 214.23 0 94.82 0 214.23 159.22" />
      <polygon points="143.02 76.33 52.9 166.46 210.62 166.46 143.02 76.33" />
      <polygon
        points="214.23 293.11 214.23 177.95 214.23 173.7 208.07 173.7 55.02 173.7 214.23 293.11" />
    </g>
  </g>
  <g>
    <g>
      <path
        d="M260,537.72h-9.32c.24,5.51.57,11.42.57,17.35s-.33,11.83-.57,17.35h9.32c-.26-5.51-.57-11.42-.57-17.35s.32-11.83.57-17.35Z" />
      <path
        d="M237.75,556.08c5.24-1.92,8.34-5.71,8.34-9.76,0-2.35-.72-4.29-2.18-5.74-2.75-2.74-7.13-3.14-12.09-3.14s-11.42.37-15.66.27c.61,7.54.78,15.68.74,21.67-5.74-6.46-11.9-14.05-17.28-21.67h-8.95c.25,5.51.57,11.42.57,17.35s-.32,11.83-.57,17.35h7.42c-.67-8.29-.81-17.27-.72-23.34,6.15,6.79,12.92,15.05,18.77,23.34h7.8c-.25-5.51-.57-11.42-.57-17.35,0-4.34.04-8.69.19-12.87,1.43.01,3.17-.14,5.27-.14,5.29,0,7.48,2.38,7.48,5.46,0,4.23-4.28,6.45-9.53,7.62,3.92,4.87,8.75,11.61,12.38,17.28h10.76c-4.72-6.03-9.03-11.6-12.15-16.32h-.01Z" />
    </g>
    <path
      d="M280.16,572.87c-2.17,0-4.09-.44-5.76-1.31-1.67-.87-2.98-2.24-3.92-4.08-.96-1.85-1.43-4.2-1.43-7.07s.49-5.43,1.47-7.3c.98-1.87,2.33-3.25,4.06-4.13,1.72-.88,3.68-1.31,5.85-1.31,1.2,0,2.4.13,3.56.39s2.11.57,2.84.92l-1.23,3.31c-.72-.27-1.57-.53-2.54-.77-.97-.24-1.88-.37-2.72-.37-4.78,0-7.17,3.07-7.17,9.21,0,2.93.58,5.18,1.75,6.74s2.89,2.34,5.19,2.34c1.3,0,2.46-.14,3.49-.41s1.97-.6,2.82-1v3.54c-.82.42-1.72.75-2.7.98-.98.23-2.17.33-3.56.33h-.01Z" />
    <path
      d="M311.7,560.21c0,4.02-1.02,7.14-3.06,9.34-2.04,2.21-4.8,3.31-8.28,3.31-2.15,0-4.06-.49-5.74-1.47s-3-2.42-3.97-4.31-1.45-4.18-1.45-6.87c0-4.02,1.01-7.13,3.02-9.3s4.77-3.27,8.28-3.27c2.17,0,4.12.49,5.8,1.47,1.69.99,3.02,2.41,3.97,4.27.95,1.86,1.43,4.14,1.43,6.82h0ZM293.33,560.21c0,2.87.57,5.15,1.7,6.82,1.14,1.68,2.94,2.51,5.42,2.51s4.25-.84,5.39-2.51c1.15-1.68,1.73-3.95,1.73-6.82s-.57-5.13-1.73-6.76c-1.15-1.63-2.97-2.45-5.44-2.45s-4.28.82-5.39,2.45c-1.12,1.63-1.68,3.89-1.68,6.76Z" />
    <path
      d="M342.81,547.65c2.75,0,4.8.71,6.17,2.13,1.36,1.42,2.04,3.69,2.04,6.8v15.83h-3.94v-15.65c0-3.84-1.64-5.76-4.94-5.76-2.36,0-4.05.68-5.06,2.04s-1.52,3.34-1.52,5.94v13.42h-3.94v-15.65c0-3.84-1.67-5.76-4.99-5.76-2.45,0-4.14.75-5.08,2.27-.95,1.52-1.41,3.69-1.41,6.53v12.61h-3.99v-24.31h3.22l.59,3.31h.23c.75-1.27,1.77-2.21,3.06-2.84s2.65-.92,4.11-.92c3.82,0,6.29,1.36,7.44,4.08h.23c.82-1.4,1.91-2.42,3.31-3.08,1.38-.67,2.88-1,4.48-1h0Z" />
    <path
      d="M368.15,547.65c2.99,0,5.41,1.04,7.23,3.13,1.83,2.08,2.74,5.23,2.74,9.44s-.91,7.29-2.74,9.44c-1.83,2.15-4.26,3.22-7.28,3.22-1.88,0-3.43-.34-4.65-1.04-1.23-.7-2.18-1.53-2.88-2.49h-.27c.03.52.09,1.16.16,1.95s.11,1.46.11,2.04v9.97h-3.99v-35.2h3.27l.55,3.31h.18c.72-1.05,1.68-1.95,2.86-2.68,1.18-.72,2.76-1.09,4.72-1.09h-.01ZM367.43,551c-2.48,0-4.23.7-5.27,2.08-1.03,1.4-1.56,3.5-1.59,6.35v.77c0,2.99.49,5.3,1.47,6.92s2.8,2.43,5.46,2.43c1.45,0,2.65-.4,3.63-1.2.97-.81,1.69-1.91,2.15-3.33.46-1.42.7-3.04.7-4.85,0-2.78-.54-5.01-1.61-6.66-1.06-1.67-2.72-2.49-4.95-2.49h0v-.02Z" />
    <path
      d="M146.01,547.69c2.97,0,5.16.66,6.58,1.95,1.42,1.3,2.13,3.37,2.13,6.21v16.55h-2.9l-.77-3.45h-.18c-1.05,1.33-2.17,2.31-3.35,2.96-1.18.63-2.78.95-4.8.95-2.21,0-4.04-.58-5.49-1.75-1.45-1.16-2.17-2.99-2.17-5.46s.96-4.29,2.86-5.6c1.9-1.31,4.84-2.03,8.8-2.15l4.13-.14v-1.45c0-2.02-.44-3.43-1.31-4.21-.88-.78-2.12-1.18-3.72-1.18-1.27,0-2.48.19-3.63.57s-2.22.81-3.22,1.29l-1.23-2.99c1.05-.57,2.31-1.06,3.76-1.47s2.96-.61,4.54-.61h0ZM150.77,560.53l-3.58.14c-3.02.12-5.12.6-6.29,1.45-1.16.85-1.75,2.04-1.75,3.58,0,1.36.42,2.36,1.25,2.99s1.9.95,3.2.95c2.02,0,3.73-.57,5.1-1.7,1.38-1.14,2.06-2.88,2.06-5.23v-2.18h0Z" />
    <path
      d="M172.54,547.65c2.9,0,5.09.71,6.58,2.13s2.22,3.69,2.22,6.8v15.83h-3.94v-15.56c0-3.9-1.82-5.85-5.44-5.85-2.7,0-4.56.75-5.58,2.27-1.03,1.52-1.54,3.69-1.54,6.53v12.61h-3.99v-24.31h3.22l.59,3.31h.23c.78-1.27,1.88-2.21,3.27-2.84,1.39-.61,2.86-.92,4.4-.92h-.02Z" />
    <path
      d="M392.1,547.69c2.97,0,5.16.66,6.58,1.95,1.42,1.3,2.13,3.37,2.13,6.21v16.55h-2.9l-.77-3.45h-.18c-1.05,1.33-2.17,2.31-3.35,2.96-1.18.63-2.78.95-4.8.95-2.21,0-4.04-.58-5.49-1.75-1.45-1.16-2.17-2.99-2.17-5.46s.96-4.29,2.86-5.6c1.9-1.31,4.84-2.03,8.8-2.15l4.13-.14v-1.45c0-2.02-.44-3.43-1.31-4.21-.88-.78-2.12-1.18-3.72-1.18-1.27,0-2.48.19-3.63.57s-2.22.81-3.22,1.29l-1.23-2.99c1.05-.57,2.31-1.06,3.76-1.47,1.45-.41,2.96-.61,4.54-.61h0ZM396.87,560.53l-3.58.14c-3.02.12-5.12.6-6.29,1.45-1.16.85-1.75,2.04-1.75,3.58,0,1.36.42,2.36,1.25,2.99s1.9.95,3.2.95c2.02,0,3.73-.57,5.1-1.7,1.38-1.14,2.06-2.88,2.06-5.23v-2.18h0Z" />
    <path
      d="M418.64,547.65c2.9,0,5.09.71,6.58,2.13s2.22,3.69,2.22,6.8v15.83h-3.94v-15.56c0-3.9-1.82-5.85-5.44-5.85-2.7,0-4.56.75-5.58,2.27-1.03,1.52-1.54,3.69-1.54,6.53v12.61h-3.99v-24.31h3.22l.59,3.31h.23c.78-1.27,1.88-2.21,3.27-2.84,1.39-.61,2.86-.92,4.4-.92h-.02Z" />
    <path
      d="M429.56,548.1h4.27l5.27,13.83c.45,1.25.86,2.41,1.23,3.49.37,1.09.63,2.13.82,3.13h.18c.18-.75.46-1.75.86-2.98.4-1.23.81-2.46,1.23-3.7l4.94-13.79h4.31l-10.48,27.66c-.88,2.3-1.98,4.13-3.31,5.49-1.33,1.36-3.17,2.04-5.53,2.04-.72,0-1.36-.04-1.9-.11-.55-.08-1.01-.16-1.41-.25v-3.17c.33.06.73.12,1.2.18.46.06.96.09,1.47.09,1.4,0,2.5-.4,3.35-1.18s1.53-1.83,2.04-3.13l1.27-3.22-9.8-24.41h0Z" />
  </g>
</svg>