<svg xmlns="http://www.w3.org/2000/svg" xml:space="preserve" viewBox="0 0 792 792"><path fill="var(--qr-light, transparent)" d="M0 0h792v792H0z"/><g fill="var(--qr-dark, #000000)"><path d="M312.72 70.66h-12.36c-5.768 0-10.3-4.532-10.3-10.3 0-5.768 4.532-10.3 10.3-10.3h12.36v20.6z"/><path d="M324.36 70.66H312v-20.6h12.36c5.768 0 10.3 4.532 10.3 10.3 0 5.768-4.532 10.3-10.3 10.3zM408.72 70.66h-12.36c-5.768 0-10.3-4.532-10.3-10.3 0-5.768 4.532-10.3 10.3-10.3h12.36v20.6z"/><path d="M420.36 70.66H408v-20.6h12.36c5.768 0 10.3 4.532 10.3 10.3 0 5.768-4.532 10.3-10.3 10.3zM504.72 70.66h-12.36c-5.768 0-10.3-4.532-10.3-10.3 0-5.768 4.532-10.3 10.3-10.3h12.36v20.6z"/><path d="M504 50.06h24.72v20.6H504z"/><path d="M540.36 70.66H528v-20.6h12.36c5.768 0 10.3 4.532 10.3 10.3 0 5.768-4.532 10.3-10.3 10.3zM288.72 94.66h-12.36c-5.768 0-10.3-4.532-10.3-10.3 0-5.768 4.532-10.3 10.3-10.3h12.36v20.6z"/><path d="M300.36 94.66H288v-20.6h12.36c5.768 0 10.3 4.532 10.3 10.3 0 5.768-4.532 10.3-10.3 10.3zM360.72 94.66h-12.36c-5.768 0-10.3-4.532-10.3-10.3 0-5.768 4.532-10.3 10.3-10.3h12.36v20.6z"/><path d="M372.36 94.66H360v-20.6h12.36c5.768 0 10.3 4.532 10.3 10.3 0 5.768-4.532 10.3-10.3 10.3z"/><circle cx="3" cy="3" r="2.5" transform="matrix(4.12 0 0 4.12 432 72)"/><circle cx="3" cy="3" r="2.5" transform="matrix(4.12 0 0 4.12 480 72)"/><circle cx="3" cy="3" r="2.5" transform="matrix(4.12 0 0 4.12 528 72)"/><circle cx="3" cy="3" r="2.5" transform="matrix(4.12 0 0 4.12 240 96)"/><path d="M312.72 118.66h-12.36c-5.768 0-10.3-4.532-10.3-10.3 0-5.768 4.532-10.3 10.3-10.3h12.36v20.6z"/><path d="M312 98.06h24.72v20.6H312z"/><path d="M336 98.06h24.72v20.6H336z"/><path d="M372.36 118.66H360v-20.6h12.36c5.768 0 10.3 4.532 10.3 10.3 0 5.768-4.532 10.3-10.3 10.3z"/><circle cx="3" cy="3" r="2.5" transform="matrix(4.12 0 0 4.12 432 96)"/><path d="M264.72 142.66h-12.36c-5.768 0-10.3-4.532-10.3-10.3 0-5.768 4.532-10.3 10.3-10.3h12.36v20.6z"/><path d="M276.36 142.66H264v-20.6h12.36c5.768 0 10.3 4.532 10.3 10.3 0 5.768-4.532 10.3-10.3 10.3zM360.72 142.66h-12.36c-5.768 0-10.3-4.532-10.3-10.3 0-5.768 4.532-10.3 10.3-10.3h12.36v20.6z"/><path d="M360 122.06h24.72v20.6H360z"/><path d="M384 122.06h24.72v20.6H384z"/><path d="M420.36 142.66H408v-20.6h12.36c5.768 0 10.3 4.532 10.3 10.3 0 5.768-4.532 10.3-10.3 10.3zM264.72 166.66h-12.36c-5.768 0-10.3-4.532-10.3-10.3 0-5.768 4.532-10.3 10.3-10.3h12.36v20.6z"/><path d="M276.36 166.66H264v-20.6h12.36c5.768 0 10.3 4.532 10.3 10.3 0 5.768-4.532 10.3-10.3 10.3zM336.72 166.66h-12.36c-5.768 0-10.3-4.532-10.3-10.3 0-5.768 4.532-10.3 10.3-10.3h12.36v20.6z"/><path d="M348.36 166.66H336v-20.6h12.36c5.768 0 10.3 4.532 10.3 10.3 0 5.768-4.532 10.3-10.3 10.3z"/><circle cx="3" cy="3" r="2.5" transform="matrix(4.12 0 0 4.12 432 144)"/><path d="M504.72 166.66h-12.36c-5.768 0-10.3-4.532-10.3-10.3 0-5.768 4.532-10.3 10.3-10.3h12.36v20.6z"/><path d="M504 146.06h24.72v20.6H504z"/><path d="M540.36 166.66H528v-20.6h12.36c5.768 0 10.3 4.532 10.3 10.3 0 5.768-4.532 10.3-10.3 10.3z"/><circle cx="3" cy="3" r="2.5" transform="matrix(4.12 0 0 4.12 240 168)"/><path d="M336.72 190.66h-12.36c-5.768 0-10.3-4.532-10.3-10.3 0-5.768 4.532-10.3 10.3-10.3h12.36v20.6z"/><path d="M336 170.06h24.72v20.6H336z"/><path d="M360 170.06h24.72v20.6H360z"/><path d="M384 170.06h24.72v20.6H384z"/><path d="M420.36 190.66H408v-20.6h12.36c5.768 0 10.3 4.532 10.3 10.3 0 5.768-4.532 10.3-10.3 10.3z"/><circle cx="3" cy="3" r="2.5" transform="matrix(4.12 0 0 4.12 480 168)"/><circle cx="3" cy="3" r="2.5" transform="matrix(4.12 0 0 4.12 528 168)"/><circle cx="3" cy="3" r="2.5" transform="matrix(4.12 0 0 4.12 240 192)"/><circle cx="3" cy="3" r="2.5" transform="matrix(4.12 0 0 4.12 288 192)"/><circle cx="3" cy="3" r="2.5" transform="matrix(4.12 0 0 4.12 336 192)"/><circle cx="3" cy="3" r="2.5" transform="matrix(4.12 0 0 4.12 384 192)"/><circle cx="3" cy="3" r="2.5" transform="matrix(4.12 0 0 4.12 432 192)"/><circle cx="3" cy="3" r="2.5" transform="matrix(4.12 0 0 4.12 480 192)"/><circle cx="3" cy="3" r="2.5" transform="matrix(4.12 0 0 4.12 528 192)"/><path d="M264.72 238.66h-12.36c-5.768 0-10.3-4.532-10.3-10.3 0-5.768 4.532-10.3 10.3-10.3h12.36v20.6z"/><path d="M276.36 238.66H264v-20.6h12.36c5.768 0 10.3 4.532 10.3 10.3 0 5.768-4.532 10.3-10.3 10.3z"/><circle cx="3" cy="3" r="2.5" transform="matrix(4.12 0 0 4.12 312 216)"/><circle cx="3" cy="3" r="2.5" transform="matrix(4.12 0 0 4.12 432 216)"/><circle cx="3" cy="3" r="2.5" transform="matrix(4.12 0 0 4.12 528 216)"/><circle cx="3" cy="3" r="2.5" transform="matrix(4.12 0 0 4.12 48 240)"/><path d="M120.72 262.66h-12.36c-5.768 0-10.3-4.532-10.3-10.3 0-5.768 4.532-10.3 10.3-10.3h12.36v20.6z"/><path d="M120 242.06h24.72v20.6H120z"/><path d="M144 242.06h24.72v20.6H144z"/><path d="M168 242.06h24.72v20.6H168z"/><path d="M204.36 262.66H192v-20.6h12.36c5.768 0 10.3 4.532 10.3 10.3 0 5.768-4.532 10.3-10.3 10.3z"/><circle cx="3" cy="3" r="2.5" transform="matrix(4.12 0 0 4.12 312 240)"/><path d="M432.72 262.66h-12.36c-5.768 0-10.3-4.532-10.3-10.3 0-5.768 4.532-10.3 10.3-10.3h12.36v20.6z"/><path d="M444.36 262.66H432v-20.6h12.36c5.768 0 10.3 4.532 10.3 10.3 0 5.768-4.532 10.3-10.3 10.3zM504.72 262.66h-12.36c-5.768 0-10.3-4.532-10.3-10.3 0-5.768 4.532-10.3 10.3-10.3h12.36v20.6z"/><path d="M516.36 262.66H504v-20.6h12.36c5.768 0 10.3 4.532 10.3 10.3 0 5.768-4.532 10.3-10.3 10.3zM600.72 262.66h-12.36c-5.768 0-10.3-4.532-10.3-10.3 0-5.768 4.532-10.3 10.3-10.3h12.36v20.6z"/><path d="M600 242.06h24.72v20.6H600z"/><path d="M624 242.06h24.72v20.6H624z"/><path d="M648 242.06h24.72v20.6H648z"/><path d="M684.36 262.66H672v-20.6h12.36c5.768 0 10.3 4.532 10.3 10.3 0 5.768-4.532 10.3-10.3 10.3zM72.72 286.66H60.36c-5.768 0-10.3-4.532-10.3-10.3 0-5.768 4.532-10.3 10.3-10.3h12.36v20.6z"/><path d="M72 266.06h24.72v20.6H72z"/><path d="M96 266.06h24.72v20.6H96z"/><path d="M132.36 286.66H120v-20.6h12.36c5.768 0 10.3 4.532 10.3 10.3 0 5.768-4.532 10.3-10.3 10.3z"/><circle cx="3" cy="3" r="2.5" transform="matrix(4.12 0 0 4.12 168 264)"/><path d="M312.72 286.66h-12.36c-5.768 0-10.3-4.532-10.3-10.3 0-5.768 4.532-10.3 10.3-10.3h12.36v20.6z"/><path d="M324.36 286.66H312v-20.6h12.36c5.768 0 10.3 4.532 10.3 10.3 0 5.768-4.532 10.3-10.3 10.3zM408.72 286.66h-12.36c-5.768 0-10.3-4.532-10.3-10.3 0-5.768 4.532-10.3 10.3-10.3h12.36v20.6z"/><path d="M420.36 286.66H408v-20.6h12.36c5.768 0 10.3 4.532 10.3 10.3 0 5.768-4.532 10.3-10.3 10.3z"/><circle cx="3" cy="3" r="2.5" transform="matrix(4.12 0 0 4.12 504 264)"/><path d="M576.72 286.66h-12.36c-5.768 0-10.3-4.532-10.3-10.3 0-5.768 4.532-10.3 10.3-10.3h12.36v20.6z"/><path d="M576 266.06h24.72v20.6H576z"/><path d="M600 266.06h24.72v20.6H600z"/><path d="M636.36 286.66H624v-20.6h12.36c5.768 0 10.3 4.532 10.3 10.3 0 5.768-4.532 10.3-10.3 10.3z"/><circle cx="3" cy="3" r="2.5" transform="matrix(4.12 0 0 4.12 720 264)"/><circle cx="3" cy="3" r="2.5" transform="matrix(4.12 0 0 4.12 48 288)"/><circle cx="3" cy="3" r="2.5" transform="matrix(4.12 0 0 4.12 96 288)"/><path d="M168.72 310.66h-12.36c-5.768 0-10.3-4.532-10.3-10.3 0-5.768 4.532-10.3 10.3-10.3h12.36v20.6z"/><path d="M168 290.06h24.72v20.6H168z"/><path d="M192 290.06h24.72v20.6H192z"/><path d="M216 290.06h24.72v20.6H216z"/><path d="M252.36 310.66H240v-20.6h12.36c5.768 0 10.3 4.532 10.3 10.3 0 5.768-4.532 10.3-10.3 10.3z"/><circle cx="3" cy="3" r="2.5" transform="matrix(4.12 0 0 4.12 288 288)"/><path d="M384.72 310.66h-12.36c-5.768 0-10.3-4.532-10.3-10.3 0-5.768 4.532-10.3 10.3-10.3h12.36v20.6z"/><path d="M396.36 310.66H384v-20.6h12.36c5.768 0 10.3 4.532 10.3 10.3 0 5.768-4.532 10.3-10.3 10.3zM480.72 310.66h-12.36c-5.768 0-10.3-4.532-10.3-10.3 0-5.768 4.532-10.3 10.3-10.3h12.36v20.6z"/><path d="M492.36 310.66H480v-20.6h12.36c5.768 0 10.3 4.532 10.3 10.3 0 5.768-4.532 10.3-10.3 10.3z"/><circle cx="3" cy="3" r="2.5" transform="matrix(4.12 0 0 4.12 528 288)"/><circle cx="3" cy="3" r="2.5" transform="matrix(4.12 0 0 4.12 624 288)"/><path d="M72.72 334.66H60.36c-5.768 0-10.3-4.532-10.3-10.3 0-5.768 4.532-10.3 10.3-10.3h12.36v20.6z"/><path d="M84.36 334.66H72v-20.6h12.36c5.768 0 10.3 4.532 10.3 10.3 0 5.768-4.532 10.3-10.3 10.3z"/><circle cx="3" cy="3" r="2.5" transform="matrix(4.12 0 0 4.12 120 312)"/><path d="M264.72 334.66h-12.36c-5.768 0-10.3-4.532-10.3-10.3 0-5.768 4.532-10.3 10.3-10.3h12.36v20.6z"/><path d="M264 314.06h24.72v20.6H264z"/><path d="M288 314.06h24.72v20.6H288z"/><path d="M312 314.06h24.72v20.6H312z"/><path d="M348.36 334.66H336v-20.6h12.36c5.768 0 10.3 4.532 10.3 10.3 0 5.768-4.532 10.3-10.3 10.3z"/><circle cx="3" cy="3" r="2.5" transform="matrix(4.12 0 0 4.12 384 312)"/><circle cx="3" cy="3" r="2.5" transform="matrix(4.12 0 0 4.12 432 312)"/><path d="M624.72 334.66h-12.36c-5.768 0-10.3-4.532-10.3-10.3 0-5.768 4.532-10.3 10.3-10.3h12.36v20.6z"/><path d="M624 314.06h24.72v20.6H624z"/><path d="M660.36 334.66H648v-20.6h12.36c5.768 0 10.3 4.532 10.3 10.3 0 5.768-4.532 10.3-10.3 10.3z"/><circle cx="3" cy="3" r="2.5" transform="matrix(4.12 0 0 4.12 696 312)"/><circle cx="3" cy="3" r="2.5" transform="matrix(4.12 0 0 4.12 72 336)"/><path d="M192.72 358.66h-12.36c-5.768 0-10.3-4.532-10.3-10.3 0-5.768 4.532-10.3 10.3-10.3h12.36v20.6z"/><path d="M204.36 358.66H192v-20.6h12.36c5.768 0 10.3 4.532 10.3 10.3 0 5.768-4.532 10.3-10.3 10.3zM264.72 358.66h-12.36c-5.768 0-10.3-4.532-10.3-10.3 0-5.768 4.532-10.3 10.3-10.3h12.36v20.6z"/><path d="M264 338.06h24.72v20.6H264z"/><path d="M288 338.06h24.72v20.6H288z"/><path d="M312 338.06h24.72v20.6H312z"/><path d="M348.36 358.66H336v-20.6h12.36c5.768 0 10.3 4.532 10.3 10.3 0 5.768-4.532 10.3-10.3 10.3z"/><circle cx="3" cy="3" r="2.5" transform="matrix(4.12 0 0 4.12 408 336)"/><path d="M480.72 358.66h-12.36c-5.768 0-10.3-4.532-10.3-10.3 0-5.768 4.532-10.3 10.3-10.3h12.36v20.6z"/><path d="M492.36 358.66H480v-20.6h12.36c5.768 0 10.3 4.532 10.3 10.3 0 5.768-4.532 10.3-10.3 10.3zM672.72 358.66h-12.36c-5.768 0-10.3-4.532-10.3-10.3 0-5.768 4.532-10.3 10.3-10.3h12.36v20.6z"/><path d="M684.36 358.66H672v-20.6h12.36c5.768 0 10.3 4.532 10.3 10.3 0 5.768-4.532 10.3-10.3 10.3z"/><circle cx="3" cy="3" r="2.5" transform="matrix(4.12 0 0 4.12 48 360)"/><circle cx="3" cy="3" r="2.5" transform="matrix(4.12 0 0 4.12 120 360)"/><circle cx="3" cy="3" r="2.5" transform="matrix(4.12 0 0 4.12 168 360)"/><path d="M240.72 382.66h-12.36c-5.768 0-10.3-4.532-10.3-10.3 0-5.768 4.532-10.3 10.3-10.3h12.36v20.6z"/><path d="M240 362.06h24.72v20.6H240z"/><path d="M276.36 382.66H264v-20.6h12.36c5.768 0 10.3 4.532 10.3 10.3 0 5.768-4.532 10.3-10.3 10.3z"/><circle cx="3" cy="3" r="2.5" transform="matrix(4.12 0 0 4.12 312 360)"/><path d="M432.72 382.66h-12.36c-5.768 0-10.3-4.532-10.3-10.3 0-5.768 4.532-10.3 10.3-10.3h12.36v20.6z"/><path d="M444.36 382.66H432v-20.6h12.36c5.768 0 10.3 4.532 10.3 10.3 0 5.768-4.532 10.3-10.3 10.3zM504.72 382.66h-12.36c-5.768 0-10.3-4.532-10.3-10.3 0-5.768 4.532-10.3 10.3-10.3h12.36v20.6z"/><path d="M504 362.06h24.72v20.6H504z"/><path d="M528 362.06h24.72v20.6H528z"/><path d="M552 362.06h24.72v20.6H552z"/><path d="M576 362.06h24.72v20.6H576z"/><path d="M600 362.06h24.72v20.6H600z"/><path d="M636.36 382.66H624v-20.6h12.36c5.768 0 10.3 4.532 10.3 10.3 0 5.768-4.532 10.3-10.3 10.3z"/><circle cx="3" cy="3" r="2.5" transform="matrix(4.12 0 0 4.12 720 360)"/><circle cx="3" cy="3" r="2.5" transform="matrix(4.12 0 0 4.12 120 384)"/><circle cx="3" cy="3" r="2.5" transform="matrix(4.12 0 0 4.12 192 384)"/><path d="M264.72 406.66h-12.36c-5.768 0-10.3-4.532-10.3-10.3 0-5.768 4.532-10.3 10.3-10.3h12.36v20.6z"/><path d="M276.36 406.66H264v-20.6h12.36c5.768 0 10.3 4.532 10.3 10.3 0 5.768-4.532 10.3-10.3 10.3z"/><circle cx="3" cy="3" r="2.5" transform="matrix(4.12 0 0 4.12 312 384)"/><path d="M384.72 406.66h-12.36c-5.768 0-10.3-4.532-10.3-10.3 0-5.768 4.532-10.3 10.3-10.3h12.36v20.6z"/><path d="M396.36 406.66H384v-20.6h12.36c5.768 0 10.3 4.532 10.3 10.3 0 5.768-4.532 10.3-10.3 10.3zM480.72 406.66h-12.36c-5.768 0-10.3-4.532-10.3-10.3 0-5.768 4.532-10.3 10.3-10.3h12.36v20.6z"/><path d="M492.36 406.66H480v-20.6h12.36c5.768 0 10.3 4.532 10.3 10.3 0 5.768-4.532 10.3-10.3 10.3zM648.72 406.66h-12.36c-5.768 0-10.3-4.532-10.3-10.3 0-5.768 4.532-10.3 10.3-10.3h12.36v20.6z"/><path d="M648 386.06h24.72v20.6H648z"/><path d="M684.36 406.66H672v-20.6h12.36c5.768 0 10.3 4.532 10.3 10.3 0 5.768-4.532 10.3-10.3 10.3z"/><circle cx="3" cy="3" r="2.5" transform="matrix(4.12 0 0 4.12 48 408)"/><circle cx="3" cy="3" r="2.5" transform="matrix(4.12 0 0 4.12 96 408)"/><circle cx="3" cy="3" r="2.5" transform="matrix(4.12 0 0 4.12 168 408)"/><path d="M264.72 430.66h-12.36c-5.768 0-10.3-4.532-10.3-10.3 0-5.768 4.532-10.3 10.3-10.3h12.36v20.6z"/><path d="M276.36 430.66H264v-20.6h12.36c5.768 0 10.3 4.532 10.3 10.3 0 5.768-4.532 10.3-10.3 10.3z"/><circle cx="3" cy="3" r="2.5" transform="matrix(4.12 0 0 4.12 384 408)"/><circle cx="3" cy="3" r="2.5" transform="matrix(4.12 0 0 4.12 432 408)"/><path d="M528.72 430.66h-12.36c-5.768 0-10.3-4.532-10.3-10.3 0-5.768 4.532-10.3 10.3-10.3h12.36v20.6z"/><path d="M528 410.06h24.72v20.6H528z"/><path d="M564.36 430.66H552v-20.6h12.36c5.768 0 10.3 4.532 10.3 10.3 0 5.768-4.532 10.3-10.3 10.3z"/><circle cx="3" cy="3" r="2.5" transform="matrix(4.12 0 0 4.12 600 408)"/><circle cx="3" cy="3" r="2.5" transform="matrix(4.12 0 0 4.12 696 408)"/><path d="M72.72 454.66H60.36c-5.768 0-10.3-4.532-10.3-10.3 0-5.768 4.532-10.3 10.3-10.3h12.36v20.6z"/><path d="M72 434.06h24.72v20.6H72z"/><path d="M108.36 454.66H96v-20.6h12.36c5.768 0 10.3 4.532 10.3 10.3 0 5.768-4.532 10.3-10.3 10.3z"/><circle cx="3" cy="3" r="2.5" transform="matrix(4.12 0 0 4.12 144 432)"/><path d="M216.72 454.66h-12.36c-5.768 0-10.3-4.532-10.3-10.3 0-5.768 4.532-10.3 10.3-10.3h12.36v20.6z"/><path d="M216 434.06h24.72v20.6H216z"/><path d="M240 434.06h24.72v20.6H240z"/><path d="M264 434.06h24.72v20.6H264z"/><path d="M300.36 454.66H288v-20.6h12.36c5.768 0 10.3 4.532 10.3 10.3 0 5.768-4.532 10.3-10.3 10.3z"/><circle cx="3" cy="3" r="2.5" transform="matrix(4.12 0 0 4.12 408 432)"/><path d="M480.72 454.66h-12.36c-5.768 0-10.3-4.532-10.3-10.3 0-5.768 4.532-10.3 10.3-10.3h12.36v20.6z"/><path d="M492.36 454.66H480v-20.6h12.36c5.768 0 10.3 4.532 10.3 10.3 0 5.768-4.532 10.3-10.3 10.3zM552.72 454.66h-12.36c-5.768 0-10.3-4.532-10.3-10.3 0-5.768 4.532-10.3 10.3-10.3h12.36v20.6z"/><path d="M564.36 454.66H552v-20.6h12.36c5.768 0 10.3 4.532 10.3 10.3 0 5.768-4.532 10.3-10.3 10.3zM672.72 454.66h-12.36c-5.768 0-10.3-4.532-10.3-10.3 0-5.768 4.532-10.3 10.3-10.3h12.36v20.6z"/><path d="M684.36 454.66H672v-20.6h12.36c5.768 0 10.3 4.532 10.3 10.3 0 5.768-4.532 10.3-10.3 10.3z"/><circle cx="3" cy="3" r="2.5" transform="matrix(4.12 0 0 4.12 48 456)"/><circle cx="3" cy="3" r="2.5" transform="matrix(4.12 0 0 4.12 96 456)"/><path d="M240.72 478.66h-12.36c-5.768 0-10.3-4.532-10.3-10.3 0-5.768 4.532-10.3 10.3-10.3h12.36v20.6z"/><path d="M240 458.06h24.72v20.6H240z"/><path d="M276.36 478.66H264v-20.6h12.36c5.768 0 10.3 4.532 10.3 10.3 0 5.768-4.532 10.3-10.3 10.3zM432.72 478.66h-12.36c-5.768 0-10.3-4.532-10.3-10.3 0-5.768 4.532-10.3 10.3-10.3h12.36v20.6z"/><path d="M444.36 478.66H432v-20.6h12.36c5.768 0 10.3 4.532 10.3 10.3 0 5.768-4.532 10.3-10.3 10.3zM528.72 478.66h-12.36c-5.768 0-10.3-4.532-10.3-10.3 0-5.768 4.532-10.3 10.3-10.3h12.36v20.6z"/><path d="M528 458.06h24.72v20.6H528z"/><path d="M552 458.06h24.72v20.6H552z"/><path d="M576 458.06h24.72v20.6H576z"/><path d="M600 458.06h24.72v20.6H600z"/><path d="M636.36 478.66H624v-20.6h12.36c5.768 0 10.3 4.532 10.3 10.3 0 5.768-4.532 10.3-10.3 10.3z"/><circle cx="3" cy="3" r="2.5" transform="matrix(4.12 0 0 4.12 672 456)"/><circle cx="3" cy="3" r="2.5" transform="matrix(4.12 0 0 4.12 720 456)"/><circle cx="3" cy="3" r="2.5" transform="matrix(4.12 0 0 4.12 48 480)"/><path d="M168.72 502.66h-12.36c-5.768 0-10.3-4.532-10.3-10.3 0-5.768 4.532-10.3 10.3-10.3h12.36v20.6z"/><path d="M168 482.06h24.72v20.6H168z"/><path d="M204.36 502.66H192v-20.6h12.36c5.768 0 10.3 4.532 10.3 10.3 0 5.768-4.532 10.3-10.3 10.3zM288.72 502.66h-12.36c-5.768 0-10.3-4.532-10.3-10.3 0-5.768 4.532-10.3 10.3-10.3h12.36v20.6z"/><path d="M288 482.06h24.72v20.6H288z"/><path d="M312 482.06h24.72v20.6H312z"/><path d="M336 482.06h24.72v20.6H336z"/><path d="M372.36 502.66H360v-20.6h12.36c5.768 0 10.3 4.532 10.3 10.3 0 5.768-4.532 10.3-10.3 10.3zM432.72 502.66h-12.36c-5.768 0-10.3-4.532-10.3-10.3 0-5.768 4.532-10.3 10.3-10.3h12.36v20.6z"/><path d="M432 482.06h24.72v20.6H432z"/><path d="M456 482.06h24.72v20.6H456z"/><path d="M492.36 502.66H480v-20.6h12.36c5.768 0 10.3 4.532 10.3 10.3 0 5.768-4.532 10.3-10.3 10.3zM600.72 502.66h-12.36c-5.768 0-10.3-4.532-10.3-10.3 0-5.768 4.532-10.3 10.3-10.3h12.36v20.6z"/><path d="M600 482.06h24.72v20.6H600z"/><path d="M636.36 502.66H624v-20.6h12.36c5.768 0 10.3 4.532 10.3 10.3 0 5.768-4.532 10.3-10.3 10.3z"/><circle cx="3" cy="3" r="2.5" transform="matrix(4.12 0 0 4.12 672 480)"/><circle cx="3" cy="3" r="2.5" transform="matrix(4.12 0 0 4.12 48 504)"/><circle cx="3" cy="3" r="2.5" transform="matrix(4.12 0 0 4.12 144 504)"/><circle cx="3" cy="3" r="2.5" transform="matrix(4.12 0 0 4.12 216 504)"/><circle cx="3" cy="3" r="2.5" transform="matrix(4.12 0 0 4.12 264 504)"/><path d="M360.72 526.66h-12.36c-5.768 0-10.3-4.532-10.3-10.3 0-5.768 4.532-10.3 10.3-10.3h12.36v20.6z"/><path d="M372.36 526.66H360v-20.6h12.36c5.768 0 10.3 4.532 10.3 10.3 0 5.768-4.532 10.3-10.3 10.3z"/><circle cx="3" cy="3" r="2.5" transform="matrix(4.12 0 0 4.12 432 504)"/><circle cx="3" cy="3" r="2.5" transform="matrix(4.12 0 0 4.12 528 504)"/><circle cx="3" cy="3" r="2.5" transform="matrix(4.12 0 0 4.12 696 504)"/><circle cx="3" cy="3" r="2.5" transform="matrix(4.12 0 0 4.12 48 528)"/><path d="M120.72 550.66h-12.36c-5.768 0-10.3-4.532-10.3-10.3 0-5.768 4.532-10.3 10.3-10.3h12.36v20.6z"/><path d="M120 530.06h24.72v20.6H120z"/><path d="M144 530.06h24.72v20.6H144z"/><path d="M168 530.06h24.72v20.6H168z"/><path d="M192 530.06h24.72v20.6H192z"/><path d="M216 530.06h24.72v20.6H216z"/><path d="M252.36 550.66H240v-20.6h12.36c5.768 0 10.3 4.532 10.3 10.3 0 5.768-4.532 10.3-10.3 10.3z"/><circle cx="3" cy="3" r="2.5" transform="matrix(4.12 0 0 4.12 288 528)"/><path d="M360.72 550.66h-12.36c-5.768 0-10.3-4.532-10.3-10.3 0-5.768 4.532-10.3 10.3-10.3h12.36v20.6z"/><path d="M360 530.06h24.72v20.6H360z"/><path d="M384 530.06h24.72v20.6H384z"/><path d="M408 530.06h24.72v20.6H408z"/><path d="M444.36 550.66H432v-20.6h12.36c5.768 0 10.3 4.532 10.3 10.3 0 5.768-4.532 10.3-10.3 10.3zM528.72 550.66h-12.36c-5.768 0-10.3-4.532-10.3-10.3 0-5.768 4.532-10.3 10.3-10.3h12.36v20.6z"/><path d="M528 530.06h24.72v20.6H528z"/><path d="M552 530.06h24.72v20.6H552z"/><path d="M576 530.06h24.72v20.6H576z"/><path d="M600 530.06h24.72v20.6H600z"/><path d="M636.36 550.66H624v-20.6h12.36c5.768 0 10.3 4.532 10.3 10.3 0 5.768-4.532 10.3-10.3 10.3zM696.72 550.66h-12.36c-5.768 0-10.3-4.532-10.3-10.3 0-5.768 4.532-10.3 10.3-10.3h12.36v20.6z"/><path d="M696 530.06h24.72v20.6H696z"/><path d="M732.36 550.66H720v-20.6h12.36c5.768 0 10.3 4.532 10.3 10.3 0 5.768-4.532 10.3-10.3 10.3zM264.72 574.66h-12.36c-5.768 0-10.3-4.532-10.3-10.3 0-5.768 4.532-10.3 10.3-10.3h12.36v20.6z"/><path d="M264 554.06h24.72v20.6H264z"/><path d="M300.36 574.66H288v-20.6h12.36c5.768 0 10.3 4.532 10.3 10.3 0 5.768-4.532 10.3-10.3 10.3zM408.72 574.66h-12.36c-5.768 0-10.3-4.532-10.3-10.3 0-5.768 4.532-10.3 10.3-10.3h12.36v20.6z"/><path d="M408 554.06h24.72v20.6H408z"/><path d="M444.36 574.66H432v-20.6h12.36c5.768 0 10.3 4.532 10.3 10.3 0 5.768-4.532 10.3-10.3 10.3z"/><circle cx="3" cy="3" r="2.5" transform="matrix(4.12 0 0 4.12 528 552)"/><path d="M648.72 574.66h-12.36c-5.768 0-10.3-4.532-10.3-10.3 0-5.768 4.532-10.3 10.3-10.3h12.36v20.6z"/><path d="M648 554.06h24.72v20.6H648z"/><path d="M672 554.06h24.72v20.6H672z"/><path d="M696 554.06h24.72v20.6H696z"/><path d="M732.36 574.66H720v-20.6h12.36c5.768 0 10.3 4.532 10.3 10.3 0 5.768-4.532 10.3-10.3 10.3zM312.72 598.66h-12.36c-5.768 0-10.3-4.532-10.3-10.3 0-5.768 4.532-10.3 10.3-10.3h12.36v20.6z"/><path d="M312 578.06h24.72v20.6H312z"/><path d="M348.36 598.66H336v-20.6h12.36c5.768 0 10.3 4.532 10.3 10.3 0 5.768-4.532 10.3-10.3 10.3z"/><circle cx="3" cy="3" r="2.5" transform="matrix(4.12 0 0 4.12 408 576)"/><path d="M480.72 598.66h-12.36c-5.768 0-10.3-4.532-10.3-10.3 0-5.768 4.532-10.3 10.3-10.3h12.36v20.6z"/><path d="M480 578.06h24.72v20.6H480z"/><path d="M504 578.06h24.72v20.6H504z"/><path d="M540.36 598.66H528v-20.6h12.36c5.768 0 10.3 4.532 10.3 10.3 0 5.768-4.532 10.3-10.3 10.3z"/><circle cx="3" cy="3" r="2.5" transform="matrix(4.12 0 0 4.12 576 576)"/><path d="M648.72 598.66h-12.36c-5.768 0-10.3-4.532-10.3-10.3 0-5.768 4.532-10.3 10.3-10.3h12.36v20.6z"/><path d="M648 578.06h24.72v20.6H648z"/><path d="M684.36 598.66H672v-20.6h12.36c5.768 0 10.3 4.532 10.3 10.3 0 5.768-4.532 10.3-10.3 10.3zM264.72 622.66h-12.36c-5.768 0-10.3-4.532-10.3-10.3 0-5.768 4.532-10.3 10.3-10.3h12.36v20.6z"/><path d="M276.36 622.66H264v-20.6h12.36c5.768 0 10.3 4.532 10.3 10.3 0 5.768-4.532 10.3-10.3 10.3zM336.72 622.66h-12.36c-5.768 0-10.3-4.532-10.3-10.3 0-5.768 4.532-10.3 10.3-10.3h12.36v20.6z"/><path d="M348.36 622.66H336v-20.6h12.36c5.768 0 10.3 4.532 10.3 10.3 0 5.768-4.532 10.3-10.3 10.3zM456.72 622.66h-12.36c-5.768 0-10.3-4.532-10.3-10.3 0-5.768 4.532-10.3 10.3-10.3h12.36v20.6z"/><path d="M468.36 622.66H456v-20.6h12.36c5.768 0 10.3 4.532 10.3 10.3 0 5.768-4.532 10.3-10.3 10.3zM528.72 622.66h-12.36c-5.768 0-10.3-4.532-10.3-10.3 0-5.768 4.532-10.3 10.3-10.3h12.36v20.6z"/><path d="M540.36 622.66H528v-20.6h12.36c5.768 0 10.3 4.532 10.3 10.3 0 5.768-4.532 10.3-10.3 10.3z"/><circle cx="3" cy="3" r="2.5" transform="matrix(4.12 0 0 4.12 624 600)"/><circle cx="3" cy="3" r="2.5" transform="matrix(4.12 0 0 4.12 720 600)"/><path d="M264.72 646.66h-12.36c-5.768 0-10.3-4.532-10.3-10.3 0-5.768 4.532-10.3 10.3-10.3h12.36v20.6z"/><path d="M276.36 646.66H264v-20.6h12.36c5.768 0 10.3 4.532 10.3 10.3 0 5.768-4.532 10.3-10.3 10.3zM336.72 646.66h-12.36c-5.768 0-10.3-4.532-10.3-10.3 0-5.768 4.532-10.3 10.3-10.3h12.36v20.6z"/><path d="M348.36 646.66H336v-20.6h12.36c5.768 0 10.3 4.532 10.3 10.3 0 5.768-4.532 10.3-10.3 10.3z"/><circle cx="3" cy="3" r="2.5" transform="matrix(4.12 0 0 4.12 408 624)"/><circle cx="3" cy="3" r="2.5" transform="matrix(4.12 0 0 4.12 480 624)"/><path d="M552.72 646.66h-12.36c-5.768 0-10.3-4.532-10.3-10.3 0-5.768 4.532-10.3 10.3-10.3h12.36v20.6z"/><path d="M552 626.06h24.72v20.6H552z"/><path d="M576 626.06h24.72v20.6H576z"/><path d="M600 626.06h24.72v20.6H600z"/><path d="M636.36 646.66H624v-20.6h12.36c5.768 0 10.3 4.532 10.3 10.3 0 5.768-4.532 10.3-10.3 10.3z"/><circle cx="3" cy="3" r="2.5" transform="matrix(4.12 0 0 4.12 672 624)"/><circle cx="3" cy="3" r="2.5" transform="matrix(4.12 0 0 4.12 240 648)"/><circle cx="3" cy="3" r="2.5" transform="matrix(4.12 0 0 4.12 288 648)"/><circle cx="3" cy="3" r="2.5" transform="matrix(4.12 0 0 4.12 432 648)"/><path d="M504.72 670.66h-12.36c-5.768 0-10.3-4.532-10.3-10.3 0-5.768 4.532-10.3 10.3-10.3h12.36v20.6z"/><path d="M516.36 670.66H504v-20.6h12.36c5.768 0 10.3 4.532 10.3 10.3 0 5.768-4.532 10.3-10.3 10.3zM672.72 670.66h-12.36c-5.768 0-10.3-4.532-10.3-10.3 0-5.768 4.532-10.3 10.3-10.3h12.36v20.6z"/><path d="M684.36 670.66H672v-20.6h12.36c5.768 0 10.3 4.532 10.3 10.3 0 5.768-4.532 10.3-10.3 10.3z"/><circle cx="3" cy="3" r="2.5" transform="matrix(4.12 0 0 4.12 240 672)"/><circle cx="3" cy="3" r="2.5" transform="matrix(4.12 0 0 4.12 288 672)"/><circle cx="3" cy="3" r="2.5" transform="matrix(4.12 0 0 4.12 360 672)"/><path d="M480.72 694.66h-12.36c-5.768 0-10.3-4.532-10.3-10.3 0-5.768 4.532-10.3 10.3-10.3h12.36v20.6z"/><path d="M492.36 694.66H480v-20.6h12.36c5.768 0 10.3 4.532 10.3 10.3 0 5.768-4.532 10.3-10.3 10.3zM576.72 694.66h-12.36c-5.768 0-10.3-4.532-10.3-10.3 0-5.768 4.532-10.3 10.3-10.3h12.36v20.6z"/><path d="M576 674.06h24.72v20.6H576z"/><path d="M600 674.06h24.72v20.6H600z"/><path d="M624 674.06h24.72v20.6H624z"/><path d="M648 674.06h24.72v20.6H648z"/><path d="M672 674.06h24.72v20.6H672z"/><path d="M708.36 694.66H696v-20.6h12.36c5.768 0 10.3 4.532 10.3 10.3 0 5.768-4.532 10.3-10.3 10.3zM288.72 718.66h-12.36c-5.768 0-10.3-4.532-10.3-10.3 0-5.768 4.532-10.3 10.3-10.3h12.36v20.6z"/><path d="M300.36 718.66H288v-20.6h12.36c5.768 0 10.3 4.532 10.3 10.3 0 5.768-4.532 10.3-10.3 10.3z"/><circle cx="3" cy="3" r="2.5" transform="matrix(4.12 0 0 4.12 336 696)"/><path d="M456.72 718.66h-12.36c-5.768 0-10.3-4.532-10.3-10.3 0-5.768 4.532-10.3 10.3-10.3h12.36v20.6z"/><path d="M456 698.06h24.72v20.6H456z"/><path d="M492.36 718.66H480v-20.6h12.36c5.768 0 10.3 4.532 10.3 10.3 0 5.768-4.532 10.3-10.3 10.3zM552.72 718.66h-12.36c-5.768 0-10.3-4.532-10.3-10.3 0-5.768 4.532-10.3 10.3-10.3h12.36v20.6z"/><path d="M552 698.06h24.72v20.6H552z"/><path d="M576 698.06h24.72v20.6H576z"/><path d="M612.36 718.66H600v-20.6h12.36c5.768 0 10.3 4.532 10.3 10.3 0 5.768-4.532 10.3-10.3 10.3z"/><circle cx="3" cy="3" r="2.5" transform="matrix(4.12 0 0 4.12 648 696)"/><circle cx="3" cy="3" r="2.5" transform="matrix(4.12 0 0 4.12 696 696)"/><path d="M264.72 742.66h-12.36c-5.768 0-10.3-4.532-10.3-10.3 0-5.768 4.532-10.3 10.3-10.3h12.36v20.6z"/><path d="M276.36 742.66H264v-20.6h12.36c5.768 0 10.3 4.532 10.3 10.3 0 5.768-4.532 10.3-10.3 10.3z"/><circle cx="3" cy="3" r="2.5" transform="matrix(4.12 0 0 4.12 360 720)"/><circle cx="3" cy="3" r="2.5" transform="matrix(4.12 0 0 4.12 408 720)"/><circle cx="3" cy="3" r="2.5" transform="matrix(4.12 0 0 4.12 456 720)"/><circle cx="3" cy="3" r="2.5" transform="matrix(4.12 0 0 4.12 504 720)"/><circle cx="3" cy="3" r="2.5" transform="matrix(4.12 0 0 4.12 552 720)"/><path d="M624.72 742.66h-12.36c-5.768 0-10.3-4.532-10.3-10.3 0-5.768 4.532-10.3 10.3-10.3h12.36v20.6z"/><path d="M636.36 742.66H624v-20.6h12.36c5.768 0 10.3 4.532 10.3 10.3 0 5.768-4.532 10.3-10.3 10.3z"/><circle cx="3" cy="3" r="2.5" transform="matrix(4.12 0 0 4.12 672 720)"/><path d="M48 48v168h168V48H48zm144 144H72V72h120v120zM576 48v168h168V48H576zm144 144H600V72h120v120zM48 576v168h168V576H48zm144 144H72V600h120v120z"/><path d="M96 96h72v72H96zM624 96h72v72h-72zM96 624h72v72H96z"/></g></svg>