<svg xmlns="http://www.w3.org/2000/svg" version="1.1" viewBox="0.00 0.00 180.00 187.00"
  id="chrome-icon">
  <path fill="#ffffff"
    d="
  M 120.51 17.18
  Q 146.52 29.45 159.71 54.38
  A 0.46 0.45 -13.9 0 1 159.30 55.05
  Q 118.37 55.03 87.61 55.06
  C 67.37 55.07 52.33 69.20 50.36 88.87
  Q 50.26 89.88 49.75 89.01
  L 22.81 42.95
  A 2.33 2.33 0.0 0 1 23.05 40.28
  Q 51.55 6.57 96.48 10.51
  Q 108.63 11.57 120.51 17.18
  Z"
  />
  <path fill="#ffffff"
    d="
  M 58.11 113.89
  C 68.93 127.36 86.14 131.08 102.29 124.30
  Q 103.40 123.84 102.79 124.88
  Q 89.44 147.65 75.82 170.76
  Q 75.06 172.06 73.50 171.79
  C 15.67 161.73 -13.85 97.41 18.07 47.29
  A 0.42 0.42 0.0 0 1 18.78 47.30
  Q 33.38 71.96 48.47 98.15
  Q 56.10 111.39 58.11 113.89
  Z"
  />
  <path fill="#ffffff"
    d="
  M 161.90 123.33
  C 148.16 155.41 116.82 174.12 81.81 172.70
  A 0.34 0.34 0.0 0 1 81.53 172.18
  Q 99.69 141.38 118.08 110.07
  C 127.93 93.30 123.46 72.73 107.35 61.37
  Q 106.43 60.71 107.56 60.71
  Q 133.82 60.62 160.44 60.57
  C 162.02 60.56 162.98 61.46 163.47 62.87
  Q 174.41 94.10 161.90 123.33
  Z"
  />
  <circle fill="#ffffff" cx="86.77" cy="91.38" r="30.28" />
</svg>