<svg xmlns="http://www.w3.org/2000/svg" version="1.1" viewBox="0.00 0.00 208.00 193.00"
  id="edge-icon">
  <path fill="#ffffff"
    d="   M 77.48 45.77   Q 55.20 60.36 37.24 80.20   Q 36.62 80.88 36.85 79.99   C 46.25 44.00 77.53 20.45 114.87 20.99   Q 116.97 21.02 118.71 20.24   C 130.94 14.78 143.63 10.91 156.75 10.05   Q 165.56 9.46 172.86 12.19   C 181.25 15.32 185.37 25.30 185.70 33.83   Q 186.19 46.74 180.61 59.85   A 0.05 0.05 0.0 0 1 180.53 59.86   Q 179.25 58.11 178.47 56.14   Q 178.42 56.03 178.47 55.92   C 182.76 45.23 186.34 27.84 174.20 21.64   C 165.02 16.95 150.72 21.26 141.26 25.58   Q 140.54 25.90 141.27 26.20   Q 158.03 33.11 169.27 45.34   Q 193.56 71.78 189.54 108.12   A 0.47 0.46 -86.5 0 1 189.08 108.53   L 81.06 108.66   Q 80.50 108.66 80.45 109.22   C 79.12 123.78 91.37 136.05 104.42 139.80   C 119.72 144.20 135.18 136.98 143.25 123.78   Q 143.43 123.49 143.77 123.49   L 186.01 123.48   Q 186.71 123.48 186.47 124.14   C 174.06 158.20 142.50 177.51 106.35 175.66   Q 90.25 174.84 78.43 169.14   Q 77.93 168.90 77.43 169.15   Q 63.48 176.03 50.69 178.13   C 37.00 180.38 20.52 177.09 17.86 160.88   C 15.81 148.42 18.74 134.85 23.07 122.67   C 33.64 92.89 53.22 66.35 77.55 45.85   Q 78.20 45.31 77.48 45.77   Z   M 115.28 56.16   C 97.06 54.39 80.85 68.34 79.59 86.73   A 0.37 0.36 2.2 0 0 79.96 87.12   L 144.32 87.22   A 0.63 0.62 87.1 0 0 144.94 86.53   C 143.45 70.23 131.54 57.74 115.28 56.16   Z   M 38.54 125.23   C 33.72 134.97 28.92 146.14 29.41 156.95   C 30.52 181.46 59.60 172.23 72.32 166.34   A 0.26 0.26 0.0 0 0 72.35 165.88   Q 48.79 151.39 39.04 125.25   A 0.27 0.27 0.0 0 0 38.54 125.23   Z" />
</svg>