<svg xmlns="http://www.w3.org/2000/svg" version="1.1" viewBox="0.00 0.00 190.00 199.00"
  id="firefox-icon">
  <path fill="#ffffff"
    d="   M 15.00 98.78   Q 13.81 101.49 13.77 104.51   A 0.09 0.09 0.0 0 1 13.65 104.59   L 13.37 104.47   A 0.21 0.21 0.0 0 1 13.23 104.27   Q 13.30 90.68 17.87 77.93   Q 18.09 77.31 17.72 77.86   Q 15.75 80.79 14.20 84.01   Q 13.57 85.32 13.96 83.92   C 16.66 74.22 20.45 64.58 26.82 56.91   Q 27.12 56.55 27.13 56.09   C 27.29 48.95 29.03 40.05 33.62 34.33   C 35.21 32.35 35.96 30.25 38.03 28.61   A 0.26 0.25 -19.0 0 1 38.45 28.81   C 38.44 31.52 38.72 35.18 40.43 37.50   C 42.27 40.01 43.37 42.57 45.84 44.66   Q 46.22 44.98 46.72 44.90   Q 55.54 43.31 64.05 46.39   Q 64.51 46.56 64.91 46.27   Q 67.16 44.64 69.49 42.97   Q 71.28 41.68 73.06 41.25   C 75.03 40.76 76.75 39.52 78.78 39.24   Q 82.87 38.66 86.49 39.16   A 0.51 0.51 0.0 0 1 86.91 39.82   Q 86.82 40.11 86.49 40.06   A 0.50 0.48 -61.3 0 0 86.10 40.18   C 81.30 44.42 77.34 47.75 74.85 53.99   A 1.29 1.26 -44.4 0 0 74.83 54.89   Q 77.15 61.47 83.80 61.83   Q 89.33 62.13 94.29 63.49   A 2.19 2.19 0.0 0 1 95.89 65.87   C 95.33 70.33 92.27 73.36 88.23 74.97   Q 83.31 76.93 78.46 79.69   C 77.08 80.47 76.40 81.63 76.65 83.26   Q 77.12 86.28 76.33 89.13   Q 76.21 89.54 75.91 89.84   Q 75.80 89.95 75.64 89.94   Q 74.89 89.90 75.18 90.58   Q 75.32 90.90 75.43 91.21   Q 75.76 92.12 75.00 91.52   Q 72.82 89.81 70.49 88.76   Q 70.21 88.63 69.89 88.64   Q 69.31 88.66 69.60 89.16   Q 69.69 89.30 69.55 89.46   Q 69.30 89.74 69.33 89.37   Q 69.35 88.99 69.00 88.87   Q 68.73 88.77 68.47 88.87   Q 66.01 89.80 65.14 92.19   C 62.92 98.27 66.53 101.75 70.66 105.52   Q 71.65 106.42 72.79 106.99   C 73.95 107.56 74.44 108.55 75.62 109.13   C 83.56 112.98 89.32 107.58 97.05 107.60   Q 103.85 107.62 108.76 112.67   C 110.19 114.15 111.34 117.01 109.07 118.33   Q 108.07 118.92 106.87 118.67   Q 103.24 117.91 99.14 120.44   C 94.36 123.40 90.13 125.71 84.30 126.20   Q 76.86 126.84 69.98 124.68   Q 69.21 124.43 69.67 125.10   Q 74.80 132.43 82.71 135.62   C 99.21 142.27 117.39 138.23 128.32 124.17   C 138.05 111.65 139.24 93.87 130.82 80.21   C 129.41 77.93 127.40 76.51 125.45 74.76   Q 116.05 66.32 112.41 55.32   C 107.24 39.65 113.30 22.76 123.67 10.62   Q 124.06 10.15 124.22 10.74   Q 125.62 15.99 131.18 22.12   Q 136.54 28.03 142.21 33.38   Q 142.78 33.92 142.93 33.15   Q 143.61 29.66 145.84 26.38   Q 146.24 25.79 146.42 26.48   Q 147.31 29.84 149.22 32.85   C 160.00 49.87 172.15 67.14 174.51 87.68   Q 174.65 88.88 175.38 87.91   L 176.56 86.32   Q 177.21 85.45 177.36 86.53   C 179.42 101.60 176.62 117.58 168.56 130.60   C 167.03 133.07 168.15 136.16 167.37 138.95   C 163.90 151.33 152.51 159.38 141.39 164.42   Q 140.83 164.68 140.49 165.20   C 132.06 178.12 112.77 181.15 97.68 181.02   Q 68.04 180.76 44.27 161.14   C 25.94 146.01 14.68 122.80 15.34 98.86   Q 15.36 97.95 15.00 98.78   Z" />
</svg>