<svg xmlns="http://www.w3.org/2000/svg" version="1.1" viewBox="0.00 0.00 193.00 190.00"
  id="safari-icon">
  <path fill="#ffffff"
    d="   M 178.90 94.00   A 82.40 82.17 0.0 0 1 96.50 176.17   A 82.40 82.17 0.0 0 1 14.10 94.00   A 82.40 82.17 0.0 0 1 96.50 11.83   A 82.40 82.17 0.0 0 1 178.90 94.00   Z   M 171.8299 93.8685   A 75.33 75.12 -0.1 0 0 96.3689 18.8801   A 75.33 75.12 -0.1 0 0 21.1701 94.1315   A 75.33 75.12 -0.1 0 0 96.6311 169.1199   A 75.33 75.12 -0.1 0 0 171.8299 93.8685   Z" />

  <rect fill="#ffffff" x="95.21" y="21.50" width="2.58" height="14.92" rx="1.21" />
  <rect fill="#ffffff" x="-1.32" y="-3.95" transform="translate(89.81,25.72) rotate(-5.6)"
    width="2.64" height="7.90" rx="1.26" />
  <rect fill="#ffffff" x="-1.32" y="-3.95" transform="translate(103.25,25.78) rotate(5.7)"
    width="2.64" height="7.90" rx="1.25" />
  <rect fill="#ffffff" x="-1.32" y="-7.46" transform="translate(83.79,30.18) rotate(-11.2)"
    width="2.64" height="14.92" rx="1.27" />
  <rect fill="#ffffff" x="-1.32" y="-7.46" transform="translate(109.21,30.18) rotate(11.2)"
    width="2.64" height="14.92" rx="1.26" />
  <rect fill="#ffffff" x="-1.32" y="-3.94" transform="translate(76.62,28.29) rotate(-16.9)"
    width="2.64" height="7.88" rx="1.26" />
  <rect fill="#ffffff" x="-1.32" y="-3.93" transform="translate(116.41,28.45) rotate(17.4)"
    width="2.64" height="7.86" rx="1.26" />
  <rect fill="#ffffff" x="-1.33" y="-7.46" transform="translate(71.57,33.87) rotate(-22.8)"
    width="2.66" height="14.92" rx="1.28" />
  <rect fill="#ffffff" x="-1.33" y="-7.46" transform="translate(121.43,33.89) rotate(22.8)"
    width="2.66" height="14.92" rx="1.30" />
  <rect fill="#ffffff" x="-1.32" y="-3.95" transform="translate(64.18,33.31) rotate(-28.1)"
    width="2.64" height="7.90" rx="1.27" />
  <rect fill="#ffffff" x="-1.33" y="-3.93" transform="translate(128.81,33.60) rotate(28.7)"
    width="2.66" height="7.86" rx="1.24" />
  <rect fill="#ffffff" x="-1.33" y="-7.46" transform="translate(132.69,39.86) rotate(34.0)"
    width="2.66" height="14.92" rx="1.27" />
  <rect fill="#ffffff" x="-1.33" y="-7.46" transform="translate(60.31,39.86) rotate(-33.9)"
    width="2.66" height="14.92" rx="1.27" />
  <rect fill="#ffffff" x="-1.32" y="-3.95" transform="translate(52.98,40.70) rotate(-39.3)"
    width="2.64" height="7.90" rx="1.27" />
  <rect fill="#ffffff" x="-1.33" y="-3.95" transform="translate(139.93,41.09) rotate(39.7)"
    width="2.66" height="7.90" rx="1.28" />
  <rect fill="#ffffff" x="-7.46" y="-1.32" transform="translate(50.44,47.92) rotate(44.8)"
    width="14.92" height="2.64" rx="1.26" />
  <path fill="#ffffff"
    d="   M 44.89 145.55   Q 44.84 145.81 44.61 145.81   Q 44.13 145.84 44.45 145.47   Q 45.02 144.81 44.81 143.94   Q 44.67 143.33 45.12 142.90   Q 48.67 139.51 51.19 136.00   Q 69.15 111.00 86.28 86.96   Q 87.75 84.90 89.83 83.46   Q 117.86 64.01 140.83 47.33   C 142.62 46.03 144.19 44.43 145.77 42.86   Q 146.61 42.03 147.89 42.25   Q 148.12 42.29 148.34 42.38   A 0.55 0.55 0.0 0 1 148.58 43.17   Q 147.36 45.12 145.80 46.81   Q 144.43 48.31 143.12 50.12   Q 124.41 76.26 106.02 102.01   A 6.35 6.20 -0.5 0 1 104.55 103.47   Q 78.45 121.87 51.50 140.97   C 49.94 142.07 48.52 143.41 47.08 144.68   C 46.60 145.10 45.95 145.31 45.32 145.24   A 0.40 0.39 8.8 0 0 44.89 145.55   Z   M 98.37 91.23   Q 100.82 95.21 104.84 98.17   Q 105.26 98.49 105.57 98.06   L 136.93 54.22   Q 137.91 52.84 136.53 53.82   L 92.33 85.05   Q 91.67 85.51 92.35 85.95   Q 94.12 87.12 95.81 88.34   Q 97.24 89.39 98.37 91.23   Z"
    style="&#10;    /* fill: red; */&#10;" />
  <rect fill="#ffffff" x="-3.96" y="-1.32" transform="translate(43.44,50.10) rotate(39.3)"
    width="7.92" height="2.64" rx="1.27" />
  <rect fill="#ffffff" x="-3.94" y="-1.32" transform="translate(149.39,50.57) rotate(-39.4)"
    width="7.88" height="2.64" rx="1.22" />
  <rect fill="#ffffff" x="-7.48" y="-1.32" transform="translate(42.33,57.72) rotate(33.7)"
    width="14.96" height="2.64" rx="1.26" />
  <rect fill="#ffffff" x="-7.47" y="-1.33" transform="translate(150.66,57.72) rotate(-33.7)"
    width="14.94" height="2.66" rx="1.22" />

  <rect fill="#ffffff" x="-3.97" y="-1.32" transform="translate(35.93,61.17) rotate(28.2)"
    width="7.94" height="2.64" rx="1.26" />
  <rect fill="#ffffff" x="-3.96" y="-1.32" transform="translate(156.80,61.70) rotate(-28.5)"
    width="7.92" height="2.64" rx="1.27" />
  <rect fill="#ffffff" x="-7.50" y="-1.32" transform="translate(36.32,68.92) rotate(22.4)"
    width="15.00" height="2.64" rx="1.28" />
  <rect fill="#ffffff" x="-7.50" y="-1.32" transform="translate(156.69,68.91) rotate(-22.4)"
    width="15.00" height="2.64" rx="1.28" />
  <rect fill="#ffffff" x="-3.97" y="-1.32" transform="translate(30.73,73.48) rotate(17.2)"
    width="7.94" height="2.64" rx="1.26" />
  <rect fill="#ffffff" x="-3.96" y="-1.32" transform="translate(161.88,74.06) rotate(-16.8)"
    width="7.92" height="2.64" rx="1.24" />
  <rect fill="#ffffff" x="-7.49" y="-1.32" transform="translate(32.61,81.07) rotate(11.1)"
    width="14.98" height="2.64" rx="1.27" />
  <rect fill="#ffffff" x="-7.50" y="-1.32" transform="translate(160.39,81.07) rotate(-11.0)"
    width="15.00" height="2.64" rx="1.27" />
  <rect fill="#ffffff" x="-3.97" y="-1.32" transform="translate(28.04,86.56) rotate(5.7)"
    width="7.94" height="2.64" rx="1.26" />
  <rect fill="#ffffff" x="-3.95" y="-1.31" transform="translate(164.45,87.17) rotate(-5.9)"
    width="7.90" height="2.62" rx="1.23" />
  <rect fill="#ffffff" x="23.79" y="92.38" width="15.04" height="2.62" rx="1.27" />
  <rect fill="#ffffff" x="-7.52" y="-1.31" transform="translate(161.66,93.69) rotate(-0.1)"
    width="15.04" height="2.62" rx="1.27" />
  <rect fill="#ffffff" x="-3.97" y="-1.31" transform="translate(27.99,99.92) rotate(-5.5)"
    width="7.94" height="2.62" rx="1.25" />
  <rect fill="#ffffff" x="-3.92" y="-1.31" transform="translate(164.40,100.52) rotate(5.9)"
    width="7.84" height="2.62" rx="1.16" />
  <rect fill="#ffffff" x="-7.49" y="-1.32" transform="translate(32.61,106.33) rotate(-11.3)"
    width="14.98" height="2.64" rx="1.26" />
  <rect fill="#ffffff" x="-7.49" y="-1.32" transform="translate(160.39,106.33) rotate(11.2)"
    width="14.98" height="2.64" rx="1.28" />
  <rect fill="#ffffff" x="-3.95" y="-1.32" transform="translate(30.56,113.03) rotate(-17.0)"
    width="7.90" height="2.64" rx="1.23" />
  <rect fill="#ffffff" x="-3.96" y="-1.32" transform="translate(161.71,113.61) rotate(16.9)"
    width="7.92" height="2.64" rx="1.26" />
  <rect fill="#ffffff" x="-7.52" y="-1.32" transform="translate(36.31,118.48) rotate(-22.4)"
    width="15.04" height="2.64" rx="1.28" />
  <rect fill="#ffffff" x="-7.50" y="-1.32" transform="translate(156.68,118.47) rotate(22.4)"
    width="15.00" height="2.64" rx="1.28" />
  <rect fill="#ffffff" x="-3.96" y="-1.32" transform="translate(35.64,125.39) rotate(-27.9)"
    width="7.92" height="2.64" rx="1.27" />
  <rect fill="#ffffff" x="-3.97" y="-1.32" transform="translate(156.52,125.92) rotate(28.2)"
    width="7.94" height="2.64" rx="1.27" />
  <rect fill="#ffffff" x="-7.49" y="-1.32" transform="translate(42.33,129.67) rotate(-33.6)"
    width="14.98" height="2.64" rx="1.29" />
  <rect fill="#ffffff" x="-7.51" y="-1.32" transform="translate(150.67,129.67) rotate(33.6)"
    width="15.02" height="2.64" rx="1.29" />
  <rect fill="#ffffff" x="-3.95" y="-1.32" transform="translate(43.07,136.51) rotate(-39.0)"
    width="7.90" height="2.64" rx="1.24" />
  <rect fill="#ffffff" x="-7.49" y="-1.32" transform="translate(142.55,139.49) rotate(44.9)"
    width="14.98" height="2.64" rx="1.28" />
  <rect fill="#ffffff" x="-3.97" y="-1.32" transform="translate(149.02,136.99) rotate(39.5)"
    width="7.94" height="2.64" rx="1.27" />
  <rect fill="#ffffff" x="-1.33" y="-7.47" transform="translate(60.31,147.54) rotate(34.1)"
    width="2.66" height="14.94" rx="1.29" />
  <rect fill="#ffffff" x="-1.33" y="-7.47" transform="translate(132.70,147.54) rotate(-34.0)"
    width="2.66" height="14.94" rx="1.29" />
  <rect fill="#ffffff" x="-1.33" y="-3.95" transform="translate(52.52,146.00) rotate(39.4)"
    width="2.66" height="7.90" rx="1.27" />
  <rect fill="#ffffff" x="-1.32" y="-3.95" transform="translate(139.46,146.38) rotate(-40.0)"
    width="2.64" height="7.90" rx="1.25" />
  <rect fill="#ffffff" x="-1.33" y="-7.47" transform="translate(71.58,153.51) rotate(22.6)"
    width="2.66" height="14.94" rx="1.27" />
  <rect fill="#ffffff" x="-1.33" y="-7.45" transform="translate(121.43,153.51) rotate(-22.6)"
    width="2.66" height="14.90" rx="1.22" />
  <rect fill="#ffffff" x="-1.33" y="-3.95" transform="translate(63.66,153.48) rotate(28.7)"
    width="2.66" height="7.90" rx="1.27" />
  <rect fill="#ffffff" x="-1.33" y="-7.44" transform="translate(83.79,157.20) rotate(11.4)"
    width="2.66" height="14.88" rx="1.27" />
  <rect fill="#ffffff" x="-1.33" y="-7.43" transform="translate(109.21,157.20) rotate(-11.3)"
    width="2.66" height="14.86" rx="1.23" />
  <rect fill="#ffffff" x="-1.33" y="-3.95" transform="translate(128.26,153.75) rotate(-28.5)"
    width="2.66" height="7.90" rx="1.27" />
  <rect fill="#ffffff" x="95.21" y="150.99" width="2.58" height="14.92" rx="1.20" />
  <rect fill="#ffffff" x="-1.33" y="-3.95" transform="translate(76.05,158.64) rotate(17.2)"
    width="2.66" height="7.90" rx="1.26" />
  <rect fill="#ffffff" x="-1.33" y="-3.93" transform="translate(115.82,158.80) rotate(-17.0)"
    width="2.66" height="7.86" rx="1.24" />
  <rect fill="#ffffff" x="-1.32" y="-3.93" transform="translate(89.21,161.31) rotate(5.6)"
    width="2.64" height="7.86" rx="1.21" />
  <rect fill="#ffffff" x="-1.32" y="-3.90" transform="translate(102.64,161.37) rotate(-5.5)"
    width="2.64" height="7.80" rx="1.13" />
</svg>